<svg width="280" height="280" viewBox="0 0 280 280" fill="none" xmlns="http://www.w3.org/2000/svg">
<circle cx="140" cy="140" r="140" fill="#F7F7F7"/>
<path fill-rule="evenodd" clip-rule="evenodd" d="M120.937 86.1976C125.86 81.2693 132.537 78.5 139.5 78.5C146.463 78.5 153.14 81.2693 158.063 86.1976C162.985 91.1259 165.75 97.8094 165.75 104.778V114.167H181.063C182.363 114.167 183.446 115.163 183.554 116.459L189.491 187.793C189.549 188.489 189.313 189.178 188.84 189.693C188.366 190.207 187.699 190.5 187 190.5H92C91.3009 190.5 90.6338 190.207 90.1604 189.693C89.687 189.178 89.4506 188.489 89.5086 187.793L95.4461 116.459C95.554 115.163 96.6372 114.167 97.9375 114.167H113.25V104.778C113.25 97.8094 116.015 91.1259 120.937 86.1976ZM113.25 119.167V128.556C113.25 129.936 114.369 131.056 115.75 131.056C117.131 131.056 118.25 129.936 118.25 128.556V119.167H160.75V128.556C160.75 129.936 161.869 131.056 163.25 131.056C164.631 131.056 165.75 129.936 165.75 128.556V119.167H178.762L184.283 185.5H94.7167L100.238 119.167H113.25ZM160.75 114.167H118.25V104.778C118.25 99.1336 120.49 93.7212 124.475 89.7311C128.46 85.741 133.865 83.5 139.5 83.5C145.135 83.5 150.54 85.741 154.525 89.7311C158.51 93.7212 160.75 99.1336 160.75 104.778V114.167Z" fill="#222427"/>
<circle cx="181.5" cy="179.5" r="23.5" fill="#50AC58"/>
<path d="M189.408 171.445C189.84 171.124 190.375 170.968 190.914 171.006C191.453 171.044 191.96 171.273 192.342 171.652C192.725 172.031 192.956 172.533 192.994 173.068C193.033 173.602 192.875 174.132 192.551 174.561L180.95 187.364C180.531 187.772 179.966 188 179.379 188C178.791 188 178.227 187.772 177.807 187.364L171.449 182.364C171.125 181.935 170.967 181.405 171.006 180.871C171.044 180.337 171.275 179.834 171.658 179.455C172.04 179.076 172.547 178.847 173.086 178.809C173.625 178.771 174.16 178.927 174.592 179.248L179.379 182.668L189.408 171.423L189.408 171.445Z" fill="white"/>
</svg>
