<svg width="280" height="280" viewBox="0 0 280 280" fill="none" xmlns="http://www.w3.org/2000/svg">
<circle cx="140" cy="140" r="140" fill="#F7F7F7"/>
<path fill-rule="evenodd" clip-rule="evenodd" d="M120.937 86.1976C125.86 81.2693 132.537 78.5 139.5 78.5C146.463 78.5 153.14 81.2693 158.063 86.1976C162.985 91.1259 165.75 97.8094 165.75 104.778V114.167H181.063C182.363 114.167 183.446 115.163 183.554 116.459L189.491 187.793C189.549 188.489 189.313 189.178 188.84 189.693C188.366 190.207 187.699 190.5 187 190.5H92C91.3009 190.5 90.6338 190.207 90.1604 189.693C89.687 189.178 89.4506 188.489 89.5086 187.793L95.4461 116.459C95.554 115.163 96.6372 114.167 97.9375 114.167H113.25V104.778C113.25 97.8094 116.015 91.1259 120.937 86.1976ZM113.25 119.167V128.556C113.25 129.936 114.369 131.056 115.75 131.056C117.131 131.056 118.25 129.936 118.25 128.556V119.167H160.75V128.556C160.75 129.936 161.869 131.056 163.25 131.056C164.631 131.056 165.75 129.936 165.75 128.556V119.167H178.762L184.283 185.5H94.7167L100.238 119.167H113.25ZM160.75 114.167H118.25V104.778C118.25 99.1336 120.49 93.7212 124.475 89.7311C128.46 85.741 133.865 83.5 139.5 83.5C145.135 83.5 150.54 85.741 154.525 89.7311C158.51 93.7212 160.75 99.1336 160.75 104.778V114.167Z" fill="#222427"/>
<circle cx="181.5" cy="179.5" r="23.5" fill="#222427"/>
<path d="M187.152 171.45C187.482 171.203 187.89 171.083 188.301 171.112C188.712 171.141 189.099 171.317 189.391 171.609C189.682 171.9 189.859 172.286 189.888 172.697C189.917 173.108 189.797 173.516 189.55 173.845L182.699 180.69C182.379 181.003 181.948 181.179 181.5 181.179C181.051 181.179 180.621 181.003 180.301 180.69L173.449 173.845C173.202 173.516 173.082 173.108 173.111 172.697C173.14 172.286 173.317 171.9 173.609 171.609C173.9 171.317 174.287 171.141 174.698 171.112C175.11 171.083 175.518 171.203 175.847 171.45L181.5 177.079L187.152 171.433L187.152 171.45Z" fill="white"/>
<path d="M175.847 187.551C175.517 187.798 175.109 187.918 174.698 187.889C174.287 187.86 173.9 187.683 173.608 187.392C173.317 187.101 173.14 186.714 173.111 186.303C173.082 185.892 173.202 185.485 173.449 185.155L180.3 178.311C180.621 177.997 181.051 177.822 181.499 177.822C181.948 177.822 182.378 177.997 182.698 178.311L189.55 185.155C189.797 185.485 189.917 185.892 189.888 186.303C189.859 186.714 189.682 187.101 189.39 187.392C189.099 187.683 188.712 187.86 188.301 187.889C187.889 187.918 187.481 187.798 187.152 187.551L181.499 181.921L175.847 187.568L175.847 187.551Z" fill="white"/>
</svg>
