<svg width="54" height="22" viewBox="0 0 54 22" fill="none" xmlns="http://www.w3.org/2000/svg">
<path d="M11.9695 17.4435C11.3111 20.3964 9.20961 21.9998 6.08399 21.9998C2.27886 21.9895 0 19.5339 0 15.5052C0 11.4159 2.56098 8.57446 6.19888 8.57446C9.83677 8.57446 12.168 11.2535 12.168 15.4138C12.168 15.5761 12.168 15.8807 12.1367 16.2661H4.92346C5.00708 17.646 5.35329 18.2245 6.09572 18.2245C6.35152 18.217 6.5972 18.1257 6.79274 17.9655C6.98828 17.8052 7.12218 17.5854 7.17263 17.3418L11.9695 17.4435ZM7.27579 13.7092C7.22342 12.685 6.79477 12.0857 6.13636 12.0857C5.42558 12.0857 5.02819 12.6642 4.9641 13.7092H7.27579Z" fill="#222427"/>
<path d="M20.9707 21.7158V8.82837H25.8942V21.7158H20.9707Z" fill="#222427"/>
<path d="M34.9264 21.7167V14.8967C34.9264 13.7094 34.7279 13.3237 34.132 13.3237C33.4212 13.3237 33.077 13.9325 33.077 15.2316V21.7167H28.1523V8.82847H33.0758C33.0446 9.54916 33.0446 9.76195 33.0234 10.2391L32.9711 11.2845C33.7655 9.46799 34.9573 8.55347 36.473 8.55347C37.0203 8.55917 37.5573 8.69889 38.0343 8.95967C38.5112 9.22045 38.9125 9.59386 39.2012 10.0453C39.6611 10.766 39.8596 11.6183 39.8596 12.9171V21.7167H34.9264Z" fill="#222427"/>
<path d="M53.2293 17.4437C52.5708 20.3966 50.4694 22 47.3438 22C43.5386 22 41.2598 19.5443 41.2598 15.5138C41.2598 11.4244 43.8207 8.58301 47.4586 8.58301C51.0965 8.58301 53.4278 11.2621 53.4278 15.4224C53.4278 15.5847 53.4278 15.8893 53.3965 16.2747H46.1731C46.2567 17.6546 46.6029 18.233 47.3453 18.233C47.6011 18.2256 47.8468 18.1343 48.0423 17.974C48.2379 17.8137 48.3718 17.5939 48.4222 17.3504L53.2293 17.4437ZM48.5461 13.7094C48.4937 12.6852 48.0651 12.0859 47.4067 12.0859C46.6959 12.0859 46.2985 12.6644 46.2344 13.7094H48.5461Z" fill="#222427"/>
<path d="M26.7728 3.94696C26.7728 5.15469 25.288 6.14886 23.5007 6.14886C21.6923 6.14886 20.2285 5.13421 20.2285 3.92648C20.2285 2.69865 21.6817 1.7041 23.5007 1.7041C25.3196 1.7041 26.7728 2.69031 26.7728 3.94658V3.94696Z" fill="#222427"/>
<path d="M34.874 1.87721C34.874 2.89186 33.6299 3.72407 32.1353 3.72407C30.6195 3.72407 29.3965 2.882 29.3965 1.86545C29.3965 0.832207 30.6195 0 32.1353 0C33.651 0 34.874 0.832207 34.874 1.87721Z" fill="#222427"/>
<path d="M42.2123 3.16553C42.2123 3.92642 41.2713 4.54546 40.153 4.54546C39.0136 4.54546 38.0938 3.90632 38.0938 3.14504C38.0938 2.37391 39.0136 1.74463 40.153 1.74463C41.2924 1.75487 42.2123 2.37391 42.2123 3.16515V3.16553Z" fill="#222427"/>
<path d="M47.4912 5.85673C47.4912 6.38435 46.8327 6.82094 46.0591 6.82094C45.2647 6.82094 44.627 6.37449 44.627 5.84687C44.627 5.30901 45.2647 4.8728 46.0591 4.8728C46.8535 4.8728 47.4912 5.30901 47.4912 5.85901V5.85673Z" fill="#222427"/>
<path d="M13.7773 1.59302V5.22567C15.5857 5.22567 17.0495 6.22022 17.0495 7.46815C17.0495 8.67588 15.5646 9.67005 13.7773 9.67005V21.7158H18.7008V1.59302H13.7773Z" fill="#222427"/>
</svg>
