<svg xmlns="http://www.w3.org/2000/svg" viewBox="0 0 131 43" fill-rule="evenodd" xmlns:v="https://vecta.io/nano"><g transform="matrix(1.00842 0 0 1.00422 -263.117 -123.683)"><clipPath id="A"><path d="M260.919 123.162h128.948v41.831H260.919z"/></clipPath><g clip-path="url(#A)"><path d="M260.919 123.338h128.948v41.655H260.919z" fill="#222427" stroke="#1f1a17" stroke-width=".22"/><g fill="#fff"><path d="M285.4 129.504c-8.281 0-14.993 6.596-14.993 14.77s6.711 14.84 14.993 14.84 14.994-6.668 14.994-14.84-6.711-14.77-14.994-14.77zm0 21.581c-3.784 0-6.853-3.011-6.853-6.811 0-3.728 3.069-6.74 6.853-6.74s6.854 3.011 6.854 6.74c0 3.8-3.07 6.811-6.854 6.811zm38.982 7.169v-6.739h-10.139l10.781-21.653h-22.133v6.811H313.1l-10.852 21.58h22.133zm23.275 0v-6.739h-9.781V147.5h8.495v-6.811h-8.495v-4.015h9.781v-6.811h-17.706v28.391h17.706zm18.349-28.75c-8.282 0-14.994 6.596-14.994 14.77s6.711 14.84 14.994 14.84 14.921-6.668 14.921-14.84-6.64-14.77-14.921-14.77zm0 21.581c-3.784 0-6.854-3.011-6.854-6.811 0-3.728 3.07-6.74 6.854-6.74s6.782 3.011 6.782 6.74c0 3.8-2.999 6.811-6.782 6.811z"/></g></g></g></svg>