<?xml version="1.0" encoding="UTF-8" standalone="no"?>
<!DOCTYPE svg PUBLIC "-//W3C//DTD SVG 1.1//EN" "http://www.w3.org/Graphics/SVG/1.1/DTD/svg11.dtd">
<svg width="100%" height="100%" viewBox="0 0 131 43" version="1.1" xmlns="http://www.w3.org/2000/svg" xmlns:xlink="http://www.w3.org/1999/xlink" xml:space="preserve" xmlns:serif="http://www.serif.com/" style="fill-rule:evenodd;clip-rule:evenodd;">
    <g id="Artboard1" transform="matrix(1.00842,0,0,1.00422,-263.117,-123.683)">
        <rect x="260.919" y="123.162" width="128.948" height="41.831" style="fill:none;"/>
        <clipPath id="_clip1">
            <rect x="260.919" y="123.162" width="128.948" height="41.831"/>
        </clipPath>
        <g clip-path="url(#_clip1)">
            <g transform="matrix(1,0,0,0.995795,3.92575e-13,0.693849)">
                <rect x="260.919" y="123.162" width="128.948" height="41.831" style="fill:rgb(34,36,39);stroke:rgb(31,26,23);stroke-width:0.22px;"/>
            </g>
            <g transform="matrix(0.991645,0,0,0.995795,3.17152,0.693849)">
                <path d="M284.606,129.354C276.255,129.354 269.487,135.978 269.487,144.186C269.487,152.393 276.255,159.089 284.606,159.089C292.958,159.089 299.726,152.393 299.726,144.186C299.726,135.978 292.958,129.354 284.606,129.354ZM284.606,151.026C280.79,151.026 277.695,148.002 277.695,144.186C277.695,140.442 280.79,137.418 284.606,137.418C288.422,137.418 291.518,140.442 291.518,144.186C291.518,148.002 288.422,151.026 284.606,151.026Z" style="fill:white;"/>
            </g>
            <g transform="matrix(0.991645,0,0,0.995795,3.17152,0.693849)">
                <path d="M323.917,158.225L323.917,151.458L313.693,151.458L324.565,129.714L302.246,129.714L302.246,136.554L312.541,136.554L301.598,158.225L323.917,158.225Z" style="fill:white;"/>
            </g>
            <g transform="matrix(0.991645,0,0,0.995795,3.17152,0.693849)">
                <path d="M347.388,158.225L347.388,151.458L337.525,151.458L337.525,147.426L346.092,147.426L346.092,140.586L337.525,140.586L337.525,136.554L347.388,136.554L347.388,129.714L329.533,129.714L329.533,158.225L347.388,158.225Z" style="fill:white;"/>
            </g>
            <g transform="matrix(0.991645,0,0,0.995795,3.17152,0.693849)">
                <path d="M365.892,129.354C357.54,129.354 350.772,135.978 350.772,144.186C350.772,152.393 357.54,159.089 365.892,159.089C374.243,159.089 380.939,152.393 380.939,144.186C380.939,135.978 374.243,129.354 365.892,129.354ZM365.892,151.026C362.076,151.026 358.98,148.002 358.98,144.186C358.98,140.442 362.076,137.418 365.892,137.418C369.707,137.418 372.731,140.442 372.731,144.186C372.731,148.002 369.707,151.026 365.892,151.026Z" style="fill:white;"/>
            </g>
        </g>
    </g>
</svg>
