<svg width="97" height="90" viewBox="0 0 97 90" fill="none" xmlns="http://www.w3.org/2000/svg"><path d="M2.55307 46.8588C-4.63498 59.8669 4.16609 75.4897 18.8233 76.9653L24.172 77.504C28.0728 77.8972 31.5573 79.6057 34.4523 82.8909 44.5284 94.3232 63.2907 91.5001 69.4671 77.7653 70.9713 74.4203 73.6915 71.7445 77.1263 70.2304L84.6614 66.9096C96.6726 61.6162 100.745 46.9283 93.158 36.4241L88.377 29.8049C87.3386 28.367 86.5806 26.7776 86.1238 25.081L83.7496 16.2575C80.4972 4.17017 66.9346-2.36135 55.0965 2.71889L54.0829 3.15381C51.0704 4.44671 47.643 4.76003 44.4336 4.03784L28.8894.539102C13.7458-2.86944.397483 10.4161 3.77923 25.0191L5.74651 33.5129C6.54278 36.9511 6.03524 40.5567 4.31727 43.6653L2.55307 46.8588z" fill="#e30909" fill-opacity=".1"/><path d="M47.466 63.5297C57.9954 63.5297 66.5312 54.9939 66.5312 44.4645 66.5312 33.935 57.9954 25.3992 47.466 25.3992 36.9366 25.3992 28.4008 33.935 28.4008 44.4645 28.4127 54.9889 36.9414 63.5178 47.466 63.5297zM32.7338 43.5979H30.1782C30.6299 34.7225 37.724 27.6283 46.5994 27.1766V29.7322C46.5994 30.2108 46.9874 30.5988 47.466 30.5988 47.9446 30.5988 48.3326 30.2108 48.3326 29.7322V27.1766C57.208 27.6283 64.3021 34.7225 64.7538 43.5979H61.3316C60.853 43.5979 60.465 43.9859 60.465 44.4645 60.465 44.943 60.853 45.3311 61.3316 45.3311H64.7538C64.3021 54.2064 57.208 61.3006 48.3326 61.7523V59.1967C48.3326 58.7181 47.9446 58.3301 47.466 58.3301 46.9874 58.3301 46.5994 58.7181 46.5994 59.1967V61.7523C37.7241 61.3006 30.6299 54.2065 30.1782 45.3311H32.7338C33.2123 45.3311 33.6004 44.943 33.6004 44.4645 33.6004 43.9859 33.2123 43.5979 32.7338 43.5979z" fill="#222427"/><path d="M66.9774 33.2136C66.7191 32.766 66.4453 32.3275 66.1568 31.8987L68.2964 29.7591C68.6347 29.4207 68.6347 28.8721 68.2964 28.5337L63.4001 23.6374C63.0617 23.2991 62.5131 23.2991 62.1747 23.6374L60.0316 25.7736C56.565 23.4331 52.5123 22.1101 48.3325 21.9545V16.7332H54.3987C54.8773 16.7332 55.2653 16.3452 55.2653 15.8666 55.2653 15.388 54.8773 15 54.3987 15H40.5331C40.0545 15 39.6665 15.388 39.6665 15.8666 39.6665 16.3452 40.0545 16.7332 40.5331 16.7332H46.5993V21.9623C38.8705 22.2574 31.8346 26.5005 27.9674 33.1986H23.2011C22.7225 33.1986 22.3345 33.5867 22.3345 34.0652 22.3345 34.5438 22.7225 34.9318 23.2011 34.9318h5.1996C28.4232 34.9318 28.4423 34.9206 28.4648 34.9188 28.7771 34.9228 29.0668 34.7569 29.2213 34.4855 34.735 24.4087 47.3735 20.7094 57.4505 26.2229 67.5274 31.7365 71.2265 44.3752 65.713 54.452 60.1993 64.5289 47.5608 68.2282 37.4838 62.7147 33.9966 60.8066 31.1293 57.9392 29.2212 54.452 29.0682 54.1796 28.7789 54.0119 28.4664 54.0144 28.4439 54.0144 28.424 54.0014 28.4006 54.0014H23.201C22.7224 54.0014 22.3344 54.3894 22.3344 54.868 22.3344 55.3466 22.7224 55.7346 23.201 55.7346H27.9673C34.1863 66.5069 47.9605 70.1982 58.7328 63.9791 69.5052 57.7601 73.1964 43.9859 66.9774 33.2136zM61.4478 26.815 62.7873 25.4755 66.4582 29.1464 65.1167 30.4879C64.0378 29.1278 62.8068 27.8955 61.4478 26.815z" fill="#222427"/><path d="M26.6675 44.4644C26.6675 43.9859 26.2795 43.5978 25.8009 43.5978H18.8681C18.3895 43.5978 18.0015 43.9859 18.0015 44.4644 18.0015 44.943 18.3895 45.331 18.8681 45.331h6.9328C26.2795 45.331 26.6675 44.943 26.6675 44.4644z" fill="#222427"/><path d="M20.6013 40.1315H26.6676C27.1461 40.1315 27.5342 39.7434 27.5342 39.2649 27.5342 38.7863 27.1461 38.3983 26.6676 38.3983H20.6013C20.1228 38.3983 19.7347 38.7863 19.7347 39.2649 19.7347 39.7434 20.1227 40.1315 20.6013 40.1315z" fill="#222427"/><path d="M27.5342 49.6641C27.5342 49.1855 27.1461 48.7975 26.6676 48.7975H20.6013C20.1228 48.7975 19.7347 49.1855 19.7347 49.6641 19.7347 50.1427 20.1228 50.5307 20.6013 50.5307H26.6676C27.1461 50.5307 27.5342 50.1427 27.5342 49.6641z" fill="#222427"/><path d="M45.1202 50.2768C45.4587 50.6151 46.0072 50.6151 46.3456 50.2768L58.3914 38.2311C58.7239 37.8868 58.7144 37.3383 58.3701 37.0057 58.0343 36.6814 57.5019 36.6814 57.166 37.0057L45.7329 48.4388 40.5767 43.2825C40.2324 42.95 39.6837 42.9595 39.3513 43.3037 39.027 43.6395 39.027 44.1719 39.3513 44.5079L45.1202 50.2768z" fill="#e30909"/></svg>