<svg width="97" height="90" viewBox="0 0 97 90" fill="none" xmlns="http://www.w3.org/2000/svg"><path d="M94.4469 43.1407C101.635 30.1326 92.8339 14.5098 78.1767 13.0342L72.828 12.4955C68.9272 12.1023 65.4427 10.3938 62.5477 7.10862 52.4716-4.3237 33.7093-1.50062 27.5329 12.2343 26.0287 15.5792 23.3085 18.255 19.8737 19.7691L12.3386 23.0899C.327435 28.3833-3.74487 43.0712 3.84198 53.5754L8.62303 60.1947C9.66142 61.6325 10.4194 63.2219 10.8762 64.9185L13.2504 73.742C16.5028 85.8293 30.0654 92.3609 41.9035 87.2806L42.9171 86.8457C45.9296 85.5528 49.357 85.2395 52.5664 85.9617L68.1106 89.4604C83.2542 92.8689 96.6025 79.5834 93.2208 64.9804L91.2535 56.4866C90.4572 53.0484 90.9648 49.4428 92.6827 46.3342L94.4469 43.1407z" fill="#50ac58" fill-opacity=".1"/><path d="M76.7998 46.661 75.246 40.5495C75.6708 40.4608 75.9895 40.0902 75.9895 39.6462V38.6608C75.9895 36.5214 74.2194 34.7809 72.0438 34.7809H64.9666V32.7484C64.9666 31.6956 64.0957 30.8392 63.0251 30.8392H26.9498C25.8792 30.8392 25.0083 31.6956 25.0083 32.7484V49.5C25.0083 50.0101 25.4289 50.4238 25.9478 50.4238 26.4666 50.4238 26.8873 50.0103 26.8873 49.5V32.7484C26.8873 32.7144 26.9153 32.6868 26.9498 32.6868H63.025C63.0595 32.6868 63.0875 32.7144 63.0875 32.7484V49.5002C63.0875 50.0104 63.5081 50.4241 64.027 50.4241 64.5458 50.4241 64.9665 50.0105 64.9665 49.5002V48.453H76.0488C76.0498 48.453 76.0505 48.4532 76.0513 48.4532 76.0522 48.4532 76.053 48.4531 76.0539 48.4531 77.4176 48.454 78.5755 49.3342 78.9732 50.547H76.052C75.5332 50.547 75.1125 50.9606 75.1125 51.4708V53.4416C75.1125 55.0377 76.433 56.3362 78.0561 56.3362H79.1209V60.4008H76.6644C75.8575 58.1096 73.6425 56.4592 71.0415 56.4592 68.4405 56.4592 66.2255 58.1096 65.4186 60.4008H64.9663V53.4415C64.9663 52.9313 64.5457 52.5176 64.0268 52.5176 63.508 52.5176 63.0873 52.9312 63.0873 53.4415V60.4006H43.5957C42.7888 58.1094 40.5738 56.459 37.9729 56.459 35.3719 56.459 33.1568 58.1094 32.35 60.4006H26.9498C26.9153 60.4006 26.8873 60.373 26.8873 60.3391V58.3067H30.9582C31.477 58.3067 31.8977 57.8931 31.8977 57.3828 31.8977 56.8726 31.4771 56.459 30.9582 56.459H21.9395C21.4207 56.459 21 56.8726 21 57.3828 21 57.8931 21.4206 58.3067 21.9395 58.3067H25.0084V60.3391C25.0084 61.3918 25.8793 62.2483 26.95 62.2483h5.0746C32.0244 62.2688 32.023 62.2892 32.023 62.3098 32.023 65.5359 34.6922 68.1605 37.9729 68.1605 41.2535 68.1605 43.9227 65.5359 43.9227 62.3098 43.9227 62.2891 43.9213 62.2688 43.9211 62.2483H65.0933C65.0931 62.2688 65.0917 62.2892 65.0917 62.3098 65.0917 65.5359 67.7609 68.1605 71.0415 68.1605 74.3222 68.1605 76.9914 65.5359 76.9914 62.3098 76.9914 62.2891 76.99 62.2688 76.9897 62.2483H80.0604C80.5792 62.2483 80.9999 61.8347 80.9999 61.3244V51.4706C81 49.0378 79.1746 47.0165 76.7998 46.661zM64.9666 36.6284H72.0438C73.1835 36.6284 74.1107 37.5402 74.1107 38.6608V38.7224H64.9666V36.6284zM64.9666 46.6054V40.5699H73.3145L74.8489 46.6054H64.9666zM37.9729 66.3131C35.7281 66.3131 33.9019 64.5175 33.9019 62.31 33.9019 60.1026 35.7281 58.3069 37.9729 58.3069 40.2176 58.3069 42.0438 60.1026 42.0438 62.31 42.0438 64.5175 40.2176 66.3131 37.9729 66.3131zM71.0418 66.3131C68.797 66.3131 66.9708 64.5175 66.9708 62.31 66.9708 60.1026 68.797 58.3069 71.0418 58.3069 73.2865 58.3069 75.1127 60.1026 75.1127 62.31 75.1127 64.5175 73.2865 66.3131 71.0418 66.3131zM79.1211 54.4885H78.0564C77.4693 54.4885 76.9916 54.0188 76.9916 53.4415V52.3945H79.121V54.4885H79.1211z" fill="#222427"/><path d="M37.9729 60.4009C36.9022 60.4009 36.0313 61.2573 36.0313 62.3101 36.0313 63.3629 36.9022 64.2193 37.9729 64.2193 39.0435 64.2193 39.9144 63.3629 39.9144 62.3101 39.9144 61.2573 39.0435 60.4009 37.9729 60.4009z" fill="#222427"/><path d="M71.0417 60.4009C69.9711 60.4009 69.1002 61.2573 69.1002 62.3101 69.1002 63.3629 69.9711 64.2193 71.0417 64.2193 72.1124 64.2193 72.9833 63.3629 72.9833 62.3101 72.9833 61.2573 72.1124 60.4009 71.0417 60.4009z" fill="#222427"/><path d="M60.0188 56.4594H45.9895C45.4708 56.4594 45.05 56.8729 45.05 57.3832 45.05 57.8934 45.4706 58.307 45.9895 58.307H60.0188C60.5375 58.307 60.9582 57.8934 60.9582 57.3832 60.9582 56.8729 60.5377 56.4594 60.0188 56.4594z" fill="#222427"/><path d="M35.9687 52.5178H23.9436C23.4248 52.5178 23.0041 52.9313 23.0041 53.4416 23.0041 53.9518 23.4247 54.3654 23.9436 54.3654H35.9687C36.4874 54.3654 36.9081 53.9518 36.9081 53.4416 36.9081 52.9313 36.4874 52.5178 35.9687 52.5178z" fill="#222427"/><path d="M53.6686 39.9781C53.3018 39.6175 52.7068 39.6175 52.34 39.9783L43.9855 48.1934 39.6393 43.9197C39.2724 43.5589 38.6776 43.5589 38.3108 43.9197 37.9439 44.2805 37.9439 44.8653 38.3108 45.2261L43.3212 50.1531C43.5046 50.3336 43.7451 50.4237 43.9855 50.4237 44.2258 50.4237 44.4664 50.3336 44.6497 50.1531L53.6684 41.2847C54.0353 40.9238 54.0354 40.3389 53.6686 39.9781z" fill="#50ac58"/></svg>