<svg width="97" height="90" viewBox="0 0 97 90" fill="none" xmlns="http://www.w3.org/2000/svg"><path d="M94.4469 43.1407C101.635 30.1326 92.8339 14.5098 78.1767 13.0342L72.828 12.4955C68.9272 12.1023 65.4427 10.3938 62.5477 7.10862 52.4716-4.3237 33.7093-1.50062 27.5329 12.2343 26.0287 15.5792 23.3085 18.255 19.8737 19.7691L12.3386 23.0899C.327435 28.3833-3.74487 43.0712 3.84198 53.5754L8.62303 60.1947C9.66142 61.6325 10.4194 63.2219 10.8762 64.9185L13.2504 73.742C16.5028 85.8293 30.0654 92.3609 41.9035 87.2806L42.9171 86.8457C45.9296 85.5528 49.357 85.2395 52.5664 85.9617L68.1106 89.4604C83.2542 92.8689 96.6025 79.5834 93.2208 64.9804L91.2535 56.4866C90.4572 53.0484 90.9648 49.4428 92.6827 46.3342L94.4469 43.1407z" fill="#315cdc" fill-opacity=".1"/><g clip-path="url(#clip0)"><path d="M74.5292 67.2122H73.781V28.7681C74.4836 28.6578 75.0234 28.05 75.0234 27.3169V25.157C75.0234 24.346 74.3637 23.6862 73.5526 23.6862H38.0604C37.656 23.6862 37.328 24.0141 37.328 24.4186 37.328 24.8231 37.656 25.151 38.0604 25.151L73.5586 25.157 73.5526 27.3229 28.4414 27.3169 28.4474 25.151H35.1308C35.5353 25.151 35.8632 24.8231 35.8632 24.4186 35.8632 24.0141 35.5353 23.6862 35.1308 23.6862H28.4474C27.6363 23.6862 26.9766 24.346 26.9766 25.157V27.3169C26.9766 28.05 27.5164 28.6578 28.219 28.7681V67.2122H27.4708C26.6598 67.2122 26 67.872 26 68.6829V71.3854C26 71.8972 26.4164 72.3136 26.9282 72.3136H75.0718C75.5836 72.3136 76 71.8972 76 71.3854V68.6829C76 67.872 75.3402 67.2122 74.5292 67.2122zM29.6839 28.7876H72.3161V67.2121H70.067V39.8694 34.1642C70.067 32.9526 69.0813 31.9669 67.8697 31.9669H34.1302C32.9186 31.9669 31.9329 32.9526 31.9329 34.1642V39.8694 50.4206C31.9329 50.8251 32.2608 51.153 32.6653 51.153 33.0698 51.153 33.3978 50.8251 33.3978 50.4206V40.6018H68.6021V67.2121H64.192V58.1594C64.192 56.9478 63.2063 55.9621 61.9947 55.9621H57.9619V46.9053C57.9619 45.6937 56.9763 44.708 55.7646 44.708H46.2354C45.0237 44.708 44.0381 45.6937 44.0381 46.9053V55.9579H40.0053C38.7937 55.9579 37.808 56.9436 37.808 58.1552V67.2121H33.3979V53.3503C33.3979 52.9458 33.0699 52.6179 32.6654 52.6179 32.2609 52.6179 31.933 52.9458 31.933 53.3503V67.2121H29.6839V28.7876zM33.3978 37.0168H43.9338C44.3383 37.0168 44.6662 36.6889 44.6662 36.2844 44.6662 35.8799 44.3383 35.552 43.9338 35.552H33.3978V34.1643C33.3978 33.7605 33.7263 33.4319 34.1302 33.4319H67.8697C68.2735 33.4319 68.6021 33.7605 68.6021 34.1643V35.552H62.2572C61.8527 35.552 61.5248 35.8799 61.5248 36.2844 61.5248 36.6889 61.8527 37.0168 62.2572 37.0168H68.6021V39.1369H33.3978V37.0168zM52.2859 46.173V47.4081C52.2859 47.812 51.9574 48.1406 51.5535 48.1406H50.4465C50.0426 48.1406 49.7141 47.812 49.7141 47.4081V46.173H52.2859zM50.4465 49.6054H51.5535C52.7651 49.6054 53.7508 48.6198 53.7508 47.4081V46.173H55.7646C56.1685 46.173 56.4971 46.5016 56.4971 46.9054V55.958H45.5029V46.9054C45.5029 46.5016 45.8314 46.173 46.2354 46.173H48.2492V47.4081C48.2492 48.6198 49.2349 49.6054 50.4465 49.6054zM61.9947 57.4271C62.3986 57.4271 62.7271 57.7556 62.7271 58.1595V67.2122H51.733V57.4271H54.6163V58.6623C54.6163 59.874 55.602 60.8596 56.8136 60.8596H57.9207C59.1323 60.8596 60.118 59.874 60.118 58.6623V57.4271H61.9947zM58.6531 58.6623C58.6531 59.0662 58.3246 59.3948 57.9207 59.3948H56.8136C56.4097 59.3948 56.0812 59.0662 56.0812 58.6623V57.4271H58.6531V58.6623zM44.7705 57.4229H46.5996V58.6623C46.5996 59.0662 46.2711 59.3948 45.8672 59.3948H44.7602C44.3563 59.3948 44.0277 59.0662 44.0277 58.6623V57.4229H44.7705zM44.7603 60.8596H45.8673C47.0789 60.8596 48.0646 59.874 48.0646 58.6623V57.4229H50.267V67.208H39.2729V58.1553C39.2729 57.7514 39.6015 57.4229 40.0053 57.4229H42.563V58.6623C42.563 59.874 43.5486 60.8596 44.7603 60.8596zM74.5352 70.8489H27.466L27.4707 68.6771 74.5352 68.6829V70.8489z" fill="#222427"/><path d="M58.5878 35.5519H47.4133C47.0088 35.5519 46.6809 35.8798 46.6809 36.2843 46.6809 36.6888 47.0088 37.0167 47.4133 37.0167H58.5879C58.9924 37.0167 59.3204 36.6888 59.3204 36.2843 59.3204 35.8798 58.9923 35.5519 58.5878 35.5519z" fill="#315cdc"/></g><defs><clipPath id="clip0"><path d="M0 0h50v50H0z" fill="#fff" transform="translate(26 23)"/></clipPath></defs></svg>