<svg width="97" height="90" viewBox="0 0 97 90" fill="none" xmlns="http://www.w3.org/2000/svg"><path d="M2.55307 46.8588C-4.63498 59.8669 4.16609 75.4897 18.8233 76.9653L24.172 77.504C28.0728 77.8972 31.5573 79.6057 34.4523 82.8909 44.5284 94.3232 63.2907 91.5001 69.4671 77.7653 70.9713 74.4203 73.6915 71.7445 77.1263 70.2304L84.6614 66.9096C96.6726 61.6162 100.745 46.9283 93.158 36.4241L88.377 29.8049C87.3386 28.367 86.5806 26.7776 86.1238 25.081L83.7496 16.2575C80.4972 4.17017 66.9346-2.36135 55.0965 2.71889L54.0829 3.15381C51.0704 4.44671 47.643 4.76003 44.4336 4.03784L28.8894.539102C13.7458-2.86944.397483 10.4161 3.77923 25.0191L5.74651 33.5129C6.54278 36.9511 6.03524 40.5567 4.31727 43.6653L2.55307 46.8588z" fill="#ff4b01" fill-opacity=".1"/><g clip-path="url(#clip0)"><path d="M71.4533 27.6794 50.4222 16.1309C50.1062 15.9575 49.7231 15.9575 49.4071 16.1309L41.48 20.4836C41.3127 20.5277 41.1566 20.6117 41.0272 20.7324L28.3763 27.6794C28.0389 27.8643 27.8292 28.2187 27.8292 28.6039V42.5711C25.6951 43.2385 23.7394 44.4155 22.1133 46.0421 17.8748 50.2802 16.7941 56.7443 19.4243 62.1269 19.6797 62.6501 20.3113 62.8672 20.8345 62.6114 21.3581 62.3555 21.5748 61.7239 21.3194 61.2007 19.0848 56.6273 20.0031 51.135 23.6047 47.5334 25.857 45.2811 28.8514 44.0406 32.0364 44.0406 35.2215 44.0406 38.2158 45.2811 40.4682 47.5334 42.7201 49.7854 43.9606 52.7797 43.9606 55.9648 43.9606 59.1498 42.7201 62.1442 40.4678 64.3965 36.8662 67.9981 31.374 68.9164 26.8005 66.6818 26.2773 66.426 25.6457 66.6431 25.3903 67.1663 25.1344 67.6899 25.3511 68.3215 25.8748 68.5769 27.8354 69.5352 29.939 70.0008 32.0274 70.0008 35.6706 70.0004 39.2652 68.5823 41.9596 65.8879 43.1951 64.6524 44.1715 63.2269 44.8624 61.6774L49.4071 64.1728C49.5653 64.2597 49.74 64.303 49.9146 64.303 50.0893 64.303 50.2644 64.2597 50.4222 64.1728L71.4533 52.6248C71.7908 52.4394 72.0005 52.0851 72.0005 51.7003V44.3706C72.0005 43.7881 71.5283 43.3159 70.9458 43.3159 70.3632 43.3159 69.8911 43.7881 69.8911 44.3706V51.0761L50.9726 61.4644V40.7744L57.2163 37.3458V42.7808C57.2163 43.154 57.4132 43.4993 57.7342 43.6888 57.8998 43.7864 58.0852 43.8354 58.271 43.8354 58.4457 43.8354 58.6208 43.7922 58.7794 43.7048L63.2861 41.2243C63.6231 41.0389 63.832 40.685 63.832 40.3006V33.7129L69.8911 30.3861V35.9335C69.8911 36.5161 70.3632 36.9882 70.9458 36.9882 71.5283 36.9882 72.0005 36.5161 72.0005 35.9335V28.6039C72.0005 28.2191 71.7908 27.8643 71.4533 27.6794zm-21.5387-9.421L68.7544 28.6039 62.8115 31.8672 43.9717 21.5218 49.9146 18.2584zm0 20.6905L31.0749 28.6039 37.2357 25.2206 56.0759 35.5656 49.9146 38.9489zM58.2669 34.3626 39.4271 24.0176 41.7804 22.7252 60.6205 33.0702 58.2669 34.3626zM41.9596 46.0421C39.3088 43.3913 35.7847 41.9317 32.0364 41.9317 31.3274 41.9317 30.627 41.984 29.9386 42.0866V30.3861L48.8637 40.7781V61.4681L45.5789 59.6644C45.9023 58.4738 46.0696 57.232 46.0696 55.9648 46.0696 52.2165 44.6099 48.6924 41.9596 46.0421zM61.723 39.6773 59.3257 40.9969V36.1877L61.723 34.8714V39.6773z" fill="#222427"/><path d="M70.9455 39.0916C70.6682 39.0916 70.3959 39.2044 70.1998 39.4005 70.0037 39.5966 69.8908 39.8686 69.8908 40.1462 69.8908 40.4235 70.0037 40.6954 70.1998 40.8915 70.3959 41.088 70.6682 41.2005 70.9455 41.2005 71.2228 41.2005 71.4951 41.088 71.6912 40.8915 71.8873 40.6954 72.0002 40.4235 72.0002 40.1462 72.0002 39.8686 71.8873 39.5966 71.6912 39.4005 71.4951 39.2044 71.2228 39.0916 70.9455 39.0916z" fill="#222427"/><path d="M28.4897 57.0186C28.7595 57.0186 29.0298 56.9156 29.2354 56.71 29.6474 56.2981 29.6474 55.6302 29.2354 55.2182L28.5049 54.4874H34.7383C36.2503 54.4874 37.4805 55.7176 37.4805 57.2296 37.4805 58.7416 36.2503 59.9718 34.7383 59.9718H31.0448C30.4623 59.9718 29.9901 60.4439 29.9901 61.0264 29.9901 61.6086 30.4623 62.0807 31.0448 62.0807H34.7383C37.4133 62.0807 39.5899 59.9046 39.5899 57.2296 39.5899 54.5545 37.4133 52.3784 34.7383 52.3784H28.5049L29.2354 51.6475C29.6474 51.2355 29.6474 50.5677 29.2354 50.1557 28.8238 49.7442 28.156 49.7442 27.744 50.1557L25.2127 52.687C24.8012 53.099 24.8012 53.7668 25.2127 54.1788L27.744 56.7096C27.95 56.9156 28.2198 57.0186 28.4897 57.0186z" fill="#ff4b01"/><path d="M22.8594 66.1978C22.5594 66.1978 22.2616 66.0701 22.0535 65.8225L22.0515 65.82C21.6765 65.3742 21.7342 64.7093 22.18 64.3344 22.6258 63.9591 23.2911 64.0167 23.666 64.4625 24.0405 64.9087 23.9841 65.5749 23.5383 65.9498 23.3401 66.1162 23.0991 66.1978 22.8594 66.1978z" fill="#222427"/></g><defs><clipPath id="clip0"><path d="M0 0h54v54H0z" fill="#fff" transform="translate(18 16)"/></clipPath></defs></svg>