<svg width="280" height="280" viewBox="0 0 280 280" fill="none" xmlns="http://www.w3.org/2000/svg">
<circle cx="140" cy="140" r="140" fill="#F7F7F7"/>
<path fill-rule="evenodd" clip-rule="evenodd" d="M140 83C134.376 83 128.981 85.2401 125.002 89.2298C121.022 93.2196 118.786 98.6324 118.786 104.278C118.786 109.923 121.022 115.336 125.002 119.326C128.981 123.315 134.376 125.556 140 125.556C145.624 125.556 151.019 123.315 154.998 119.326C158.978 115.336 161.214 109.923 161.214 104.278C161.214 98.6324 158.978 93.2196 154.998 89.2298C151.019 85.2401 145.624 83 140 83ZM121.461 85.6989C126.377 80.7702 133.045 78 140 78C146.955 78 153.623 80.7702 158.539 85.6989C163.454 90.6275 166.214 97.3106 166.214 104.278C166.214 111.245 163.454 117.928 158.539 122.857C153.623 127.785 146.955 130.556 140 130.556C133.045 130.556 126.377 127.785 121.461 122.857C116.546 117.928 113.786 111.245 113.786 104.278C113.786 97.3106 116.546 90.6275 121.461 85.6989ZM108.885 156.311C117.136 148.038 128.328 143.389 140 143.389C151.672 143.389 162.864 148.038 171.115 156.311C179.366 164.584 184 175.803 184 187.5C184 188.881 182.881 190 181.5 190H98.5C97.837 190 97.2011 189.737 96.7322 189.268C96.2634 188.799 96 188.163 96 187.5C96 175.803 100.634 164.584 108.885 156.311ZM140 148.389C129.659 148.389 119.74 152.508 112.425 159.842C105.7 166.585 101.684 175.538 101.08 185H178.92C178.316 175.538 174.3 166.585 167.575 159.842C160.26 152.508 150.341 148.389 140 148.389Z" fill="#222427"/>
<circle cx="181.5" cy="179.5" r="23.5" fill="#50AC58"/>
<path d="M189.408 171.445C189.84 171.124 190.375 170.968 190.914 171.005C191.453 171.043 191.96 171.273 192.342 171.652C192.725 172.03 192.956 172.533 192.994 173.068C193.033 173.602 192.875 174.132 192.551 174.561L180.95 187.364C180.531 187.771 179.966 188 179.379 188C178.791 188 178.227 187.771 177.807 187.364L171.449 182.364C171.125 181.935 170.967 181.405 171.006 180.871C171.044 180.336 171.275 179.834 171.658 179.455C172.04 179.076 172.547 178.847 173.086 178.809C173.625 178.771 174.16 178.927 174.592 179.248L179.379 182.668L189.408 171.423L189.408 171.445Z" fill="white"/>
</svg>
