<svg width="561" height="561" viewBox="0 0 561 561" fill="none" xmlns="http://www.w3.org/2000/svg">
<path d="M279.7 560.7C125 560.7 0 435.7 0 281C0 126.3 125 0.524902 279.7 0.524902C434.4 0.524902 560.175 126.3 560.175 281C560.175 435.7 434.4 560.7 279.7 560.7ZM279.7 70.0749C164.075 70.0749 70.325 165.4 70.325 281.025C70.325 396.65 164.075 490.4 279.7 490.4C395.325 490.4 490.65 396.65 490.65 281.025C490.65 165.4 395.325 70.0749 279.7 70.0749ZM355.475 388.025L256.25 315.375C249.225 309.9 242.175 298.175 242.175 288.8V130.2C242.175 121.6 250 114.575 259.375 114.575H292.2C300.8 114.575 307.825 121.6 307.825 130.2V255.2C307.825 264.575 314.85 276.3 321.9 281.775L394.55 334.125C401.575 339.6 403.15 350.525 397.675 357.575L378.15 384.15C372.675 391.175 362.525 392.75 355.5 388.05L355.475 388.025Z" fill="#F96C1D"/>
</svg>
