<svg width="10" height="8" viewBox="0 0 10 8" fill="none" xmlns="http://www.w3.org/2000/svg">
<path d="M9.79551 0H8.59291C8.33136 0 8.08264 0.123278 7.92879 0.334613L3.89789 5.81925L2.07219 3.33355C1.91833 3.12473 1.67217 2.99894 1.40806 2.99894H0.20546C0.0387876 2.99894 -0.0586515 3.18511 0.0387875 3.31846L3.23376 7.66591C3.30924 7.76927 3.40874 7.85349 3.52401 7.91159C3.63928 7.96969 3.76701 8 3.8966 8C4.0262 8 4.15392 7.96969 4.2692 7.91159C4.38447 7.85349 4.48397 7.76927 4.55945 7.66591L9.95962 0.319518C10.0596 0.186176 9.96218 0 9.79551 0Z" fill="white"/>
</svg>
