<svg width="8" height="5" viewBox="0 0 8 5" fill="none" xmlns="http://www.w3.org/2000/svg">
<path d="M6.69388 0.163104C6.85108 0.0453197 7.04553 -0.0118633 7.24154 0.00205267C7.43755 0.0159687 7.62195 0.100049 7.7609 0.238859C7.89985 0.377669 7.98402 0.561891 7.99795 0.757704C8.01188 0.953517 7.95463 1.14778 7.83673 1.30482L4.57143 4.56688C4.41883 4.7163 4.21368 4.8 4 4.8C3.78632 4.8 3.58117 4.7163 3.42857 4.56688L0.163266 1.30482C0.0453643 1.14778 -0.0118742 0.953516 0.00205514 0.757703C0.015985 0.56189 0.100149 0.377668 0.239097 0.238858C0.378045 0.100048 0.562451 0.015968 0.758459 0.002052C0.954467 -0.011864 1.14892 0.0453191 1.30612 0.163103L4 2.84615L6.69388 0.154948L6.69388 0.163104Z" fill="#6E6E6E"/>
</svg>
