<svg width="6" height="10" viewBox="0 0 6 10" fill="none" xmlns="http://www.w3.org/2000/svg">
<path d="M0.20388 1.63265C0.0566497 1.43615 -0.0148291 1.19308 0.00256588 0.948074C0.0199609 0.703064 0.125062 0.472557 0.298574 0.298872C0.472086 0.125187 0.702364 0.0199808 0.94713 0.00256847C1.1919 -0.0148438 1.43472 0.0567066 1.63103 0.204083L5.7086 4.28571C5.89538 4.47646 6 4.73291 6 5C6 5.26709 5.89538 5.52354 5.7086 5.71429L1.63103 9.79592C1.43472 9.94329 1.1919 10.0148 0.947129 9.99743C0.702363 9.98002 0.472085 9.87481 0.298573 9.70113C0.125061 9.52744 0.0199604 9.29694 0.00256539 9.05193C-0.0148296 8.80692 0.0566492 8.56385 0.203879 8.36735L3.55768 5L0.193685 1.63265H0.20388Z" fill="white"/>
</svg>
