<svg width="10" height="10" viewBox="0 0 10 10" fill="none" xmlns="http://www.w3.org/2000/svg">
<path d="M8.36735 0.20388C8.56385 0.0566496 8.80692 -0.0148291 9.05193 0.00256585C9.29694 0.0199609 9.52744 0.125062 9.70113 0.298574C9.87481 0.472086 9.98002 0.702364 9.99743 0.94713C10.0148 1.1919 9.94329 1.43472 9.79592 1.63103L5.71429 5.7086C5.52354 5.89538 5.26709 6 5 6C4.73291 6 4.47646 5.89538 4.28571 5.7086L0.204081 1.63103C0.0567054 1.43472 -0.014844 1.1919 0.00256822 0.947129C0.0199814 0.702363 0.125186 0.472085 0.298871 0.298573C0.472556 0.125061 0.703064 0.0199601 0.948073 0.00256518C1.19308 -0.0148298 1.43615 0.056649 1.63265 0.203879L5 3.55768L8.36735 0.193685L8.36735 0.20388Z" fill="#6F6F6F"/>
<path d="M1.63265 9.79612C1.43615 9.94335 1.19308 10.0148 0.948074 9.99743C0.703064 9.98004 0.472557 9.87494 0.298872 9.70143C0.125187 9.52791 0.0199808 9.29764 0.00256849 9.05287C-0.0148438 8.8081 0.0567067 8.56528 0.204083 8.36897L4.28571 4.2914C4.47646 4.10462 4.73291 4 5 4C5.26709 4 5.52354 4.10462 5.71429 4.2914L9.79592 8.36897C9.94329 8.56528 10.0148 8.8081 9.99743 9.05287C9.98002 9.29764 9.87481 9.52791 9.70113 9.70143C9.52744 9.87494 9.29694 9.98004 9.05193 9.99743C8.80692 10.0148 8.56385 9.94335 8.36735 9.79612L5 6.44232L1.63265 9.80631L1.63265 9.79612Z" fill="#6F6F6F"/>
</svg>
