<svg width="16" height="16" viewBox="0 0 16 16" fill="none" xmlns="http://www.w3.org/2000/svg"><path d="M15 15 10.3333 10.3333 15 15zM11.8889 6.44444C11.8889 7.15942 11.7481 7.86739 11.4745 8.52794 11.2008 9.18849 10.7998 9.78868 10.2942 10.2942 9.78868 10.7998 9.18849 11.2008 8.52794 11.4745 7.86739 11.7481 7.15942 11.8889 6.44444 11.8889 5.72947 11.8889 5.0215 11.7481 4.36095 11.4745 3.7004 11.2008 3.1002 10.7998 2.59464 10.2942 2.08908 9.78868 1.68804 9.18849 1.41443 8.52794 1.14082 7.86739 1 7.15942 1 6.44444c0-1.44395.57361-2.82877 1.59464-3.8498C3.61567 1.57361 5.00049 1 6.44444 1 7.8884 1 9.27322 1.57361 10.2942 2.59464 11.3153 3.61567 11.8889 5.00049 11.8889 6.44444z" stroke="#6f6f6f" stroke-width="2" stroke-linecap="round" stroke-linejoin="round"/></svg>