<svg width="22" height="14" viewBox="0 0 22 14" fill="none" xmlns="http://www.w3.org/2000/svg">
<path d="M11 0.442993C6.79667 0.442993 2.98486 2.74268 0.172139 6.47797C-0.0573796 6.784 -0.0573796 7.21153 0.172139 7.51756C2.98486 11.2574 6.79667 13.557 11 13.557C15.2033 13.557 19.0151 11.2574 21.8279 7.52205C22.0574 7.21603 22.0574 6.7885 21.8279 6.48247C19.0151 2.74268 15.2033 0.442993 11 0.442993ZM11.3015 11.6174C8.5113 11.7929 6.20712 9.49321 6.38263 6.69849C6.52664 4.39431 8.39429 2.52666 10.6985 2.38265C13.4887 2.20713 15.7929 4.50682 15.6174 7.30154C15.4689 9.60122 13.6012 11.4689 11.3015 11.6174ZM11.162 9.48421C9.65889 9.57872 8.41679 8.34112 8.5158 6.838C8.59231 5.5959 9.60039 4.59232 10.8425 4.51132C12.3456 4.41681 13.5877 5.65441 13.4887 7.15753C13.4077 8.40413 12.3996 9.40771 11.162 9.48421Z" fill="#6E6E6E"/>
</svg>
