<svg width="40" height="29" viewBox="0 0 40 29" fill="none" xmlns="http://www.w3.org/2000/svg">
<path d="M39.1759 4.39793C38.7147 2.68438 37.3637 1.33367 35.6505 0.87225C32.5203 0.015625 19.9996 0.015625 19.9996 0.015625C19.9996 0.015625 7.47922 0.015625 4.34904 0.839596C2.66875 1.30071 1.28478 2.68468 0.823666 4.39793C0 7.5278 0 14.0189 0 14.0189C0 14.0189 0 20.5426 0.823666 23.6398C1.28509 25.353 2.63579 26.7041 4.34935 27.1655C7.51218 28.0221 19.9999 28.0221 19.9999 28.0221C19.9999 28.0221 32.5203 28.0221 35.6505 27.1981C37.364 26.737 38.7147 25.386 39.1762 23.6728C39.9998 20.5426 39.9998 14.0518 39.9998 14.0518C39.9998 14.0518 40.0328 7.5278 39.1759 4.39793Z" fill="#FF0000"/>
<path d="M16.0132 20.0156L26.4249 14.0189L16.0132 8.02222V20.0156Z" fill="white"/>
</svg>
